<svg xmlns="http://www.w3.org/2000/svg" width="88" height="47" viewBox="0 0 88 47"><g><g><g><g><path fill="#102463" d="M82.644 33.704V0h4.41v33.704z"/></g><g><path fill="#102463" d="M4.488.182H0v22.964c-.02 1.88.458 3.733 1.386 5.368a10.231 10.231 0 0 0 2.573 2.99l.6.475v-6.934l-.072-8.708z"/></g><g><path fill="#102463" d="M15.768 13.997a9.354 9.354 0 0 0-4.977-1.376 9.586 9.586 0 0 0-2.994.468l-.258.083v3.993l.493-.17a6.216 6.216 0 0 1 2.025-.327c1.1-.014 2.18.278 3.124.843a6.163 6.163 0 0 1 2.21 2.314 6.8 6.8 0 0 1 .814 3.32 6.88 6.88 0 0 1-.813 3.336 6.079 6.079 0 0 1-2.211 2.333 5.923 5.923 0 0 1-3.124.844 6.215 6.215 0 0 1-2.025-.327l-.493-.171v4.274l.3.06c.73.146 1.474.219 2.218.217 1.865.016 3.7-.463 5.32-1.386a10.023 10.023 0 0 0 3.799-3.8 10.737 10.737 0 0 0 1.368-5.368 11.368 11.368 0 0 0-1.27-5.361 9.673 9.673 0 0 0-3.506-3.8z"/></g><g><path fill="#102463" d="M64.7 30.539l1.994-4.578-2.834-5.806h-4.59z"/></g><g><path fill="#102463" d="M68.955 27.667l-1.611 3.696L60.452 46.5h4.563L80.31 12.462h-4.56z"/></g><g><g><path fill="#102463" d="M39.238 32.633a9.6 9.6 0 0 0 3.71-3.747 10.999 10.999 0 0 0 1.327-5.416h-4.331a7.07 7.07 0 0 1-.782 3.357A5.712 5.712 0 0 1 37 29.102z"/></g><g><path fill="#0870e3" d="M44.275 23.47a10.953 10.953 0 0 0-1.347-5.45 9.782 9.782 0 0 0-3.724-3.744 10.7 10.7 0 0 0-5.36-1.342 10.878 10.878 0 0 0-5.415 1.346l2.275 3.52a6.448 6.448 0 0 1 6.315 0 5.69 5.69 0 0 1 2.162 2.302c.525 1.044.786 2.2.763 3.368z"/></g><g><path fill="#33d3cb" d="M28.429 14.28a9.596 9.596 0 0 0-3.729 3.747l3.793 2.075a5.837 5.837 0 0 1 2.185-2.302l-2.37-3.546"/></g><g><path fill="#ac47d1" d="M24.7 18.027a11.083 11.083 0 0 0-1.323 5.443 10.999 10.999 0 0 0 1.327 5.412 9.573 9.573 0 0 0 3.729 3.747 10.866 10.866 0 0 0 5.412 1.35 10.76 10.76 0 0 0 5.393-1.346L37 29.117a6.467 6.467 0 0 1-6.315 0 5.879 5.879 0 0 1-2.184-2.275 6.963 6.963 0 0 1-.797-3.372 7.092 7.092 0 0 1 .797-3.372z"/></g></g><g><path fill="#102463" d="M47.245 13.195h4.18v2.2h.083a6.98 6.98 0 0 1 9.772-.859l-3.04 3.625a4.38 4.38 0 0 0-2.743-1.041c-1.015-.021-2 .352-2.746 1.04-.854.682-1.295 1.784-1.323 3.306v12.515H47.25z"/></g></g></g></g></svg>